PathFileType	4	(X/Y/Z)	 control3min.trc
DataRate	CameraRate	NumFrames	NumMarkers	Units	OrigDataRate	OrigDataStartFrame	OrigNumFrames
200	200	9	35	m	200	126	1000
Frame#	Time	C7			LSH			RSH			MAN			RASI			LASI			HIPR			HIPL			RPSI			LPSI			COX			RTHI1			RTHI2			RTHI3			RTHI4			RSHA1			RSHA2			RSHA3			RSHA4			RHEEL			RMET5			RMET1			RTOE			LTHI1			LTHI2			LTHI3			LTHI4			LSHA1			LSHA2			LSHA3			LSHA4			LHEEL			LMET5			LMET1			LTOE			
		X1	Y1	Z1	X2	Y2	Z2	X3	Y3	Z3	X4	Y4	Z4	X5	Y5	Z5	X6	Y6	Z6	X7	Y7	Z7	X8	Y8	Z8	X9	Y9	Z9	X10	Y10	Z10	X11	Y11	Z11	X12	Y12	Z12	X13	Y13	Z13	X14	Y14	Z14	X15	Y15	Z15	X16	Y16	Z16	X17	Y17	Z17	X18	Y18	Z18	X19	Y19	Z19	X20	Y20	Z20	X21	Y21	Z21	X22	Y22	Z22	X23	Y23	Z23	X24	Y24	Z24	X25	Y25	Z25	X26	Y26	Z26	X27	Y27	Z27	X28	Y28	Z28	X29	Y29	Z29	X30	Y30	Z30	X31	Y31	Z31	X32	Y32	Z32	X33	Y33	Z33	X34	Y34	Z34	X35	Y35	Z35	
126	0.6300	-0.276356	1.430994	-0.597076	-0.217267	1.406018	-0.767543	-0.211863	1.412781	-0.427079	-0.158062	1.391991	-0.599785	-0.117107	1.007757	-0.513593	-0.120418	1.007987	-0.686152	-0.178385	1.059116	-0.461225	-0.178217	1.060478	-0.720621	-0.258586	1.036202	-0.522469	-0.262372	1.039389	-0.638283	-0.267375	1.044994	-0.580860	-0.188684	0.828895	-0.411835	-0.189688	0.766918	-0.408994	-0.119611	0.772455	-0.431574	-0.127123	0.832213	-0.431766	-0.254809	0.387446	-0.379438	-0.270087	0.347147	-0.382478	-0.212086	0.333606	-0.394793	-0.202080	0.372427	-0.396369	-0.343400	0.149081	-0.434299	-0.210813	0.057162	-0.381669	-0.182102	0.059064	-0.448616	-0.161761	0.046981	-0.441062	-0.222069	0.784025	-0.755551	-0.214401	0.725015	-0.757386	-0.143904	0.735789	-0.770712	-0.159432	0.795085	-0.769359	-0.253258	0.362842	-0.779150	-0.266653	0.324637	-0.774675	-0.205654	0.309664	-0.778601	-0.199943	0.353228	-0.782699	-0.319945	0.160281	-0.729585	-0.198398	0.051171	-0.779329	-0.163127	0.059924	-0.720964	-0.146514	0.046415	-0.729463	
127	0.6350	-0.276343	1.429793	-0.597027	-0.217611	1.404604	-0.767582	-0.211692	1.411365	-0.427012	-0.158182	1.390550	-0.599873	-0.117704	1.006452	-0.513593	-0.121026	1.006658	-0.686142	-0.178885	1.057769	-0.461240	-0.178831	1.059151	-0.720552	-0.259151	1.034804	-0.522494	-0.262907	1.037975	-0.638296	-0.267915	1.043583	-0.580863	-0.188659	0.827383	-0.411886	-0.189412	0.765400	-0.409068	-0.119422	0.771231	-0.431723	-0.127146	0.830924	-0.431908	-0.254598	0.386412	-0.379731	-0.270161	0.346215	-0.382805	-0.212232	0.332263	-0.395026	-0.201957	0.370995	-0.396576	-0.344952	0.148234	-0.434618	-0.212098	0.056802	-0.381860	-0.183519	0.058549	-0.448877	-0.163116	0.046622	-0.441327	-0.221146	0.782436	-0.756104	-0.213089	0.723462	-0.757687	-0.142524	0.734663	-0.770293	-0.158449	0.793884	-0.769226	-0.253024	0.362238	-0.778825	-0.266710	0.324148	-0.774305	-0.205821	0.308701	-0.778129	-0.199791	0.352201	-0.782304	-0.321376	0.159868	-0.729061	-0.199657	0.050969	-0.778886	-0.164533	0.059563	-0.720340	-0.147827	0.046084	-0.728807	
128	0.6400	-0.276311	1.428345	-0.596978	-0.217926	1.402935	-0.767615	-0.211515	1.409697	-0.426937	-0.158296	1.388851	-0.599956	-0.118361	1.004882	-0.513573	-0.121647	1.005112	-0.686123	-0.179439	1.056164	-0.461249	-0.179469	1.057585	-0.720480	-0.259761	1.033138	-0.522518	-0.263469	1.036312	-0.638304	-0.268491	1.041914	-0.580868	-0.188682	0.825606	-0.411957	-0.189164	0.763620	-0.409165	-0.119244	0.769768	-0.431860	-0.127205	0.829398	-0.432043	-0.254374	0.385162	-0.380087	-0.270225	0.345086	-0.383173	-0.212390	0.330683	-0.395234	-0.201802	0.369330	-0.396774	-0.346586	0.147252	-0.434956	-0.213558	0.056301	-0.381916	-0.185081	0.057793	-0.449004	-0.164638	0.046021	-0.441424	-0.220188	0.780641	-0.756641	-0.211743	0.721708	-0.757914	-0.141124	0.733312	-0.769829	-0.157441	0.792459	-0.769104	-0.252808	0.361428	-0.778476	-0.266793	0.323464	-0.773910	-0.206018	0.307531	-0.777664	-0.199663	0.350960	-0.781912	-0.322842	0.159385	-0.728503	-0.201229	0.050414	-0.778426	-0.166165	0.058844	-0.719742	-0.149407	0.045355	-0.728172	
129	0.6450	-0.276261	1.426647	-0.596928	-0.218213	1.401012	-0.767642	-0.211333	1.407776	-0.426857	-0.158401	1.386874	-0.600038	-0.119057	1.003073	-0.513542	-0.122280	1.003342	-0.686093	-0.180059	1.054298	-0.461252	-0.180132	1.055773	-0.720403	-0.260414	1.031204	-0.522536	-0.264056	1.034398	-0.638307	-0.269104	1.039987	-0.580878	-0.188761	0.823561	-0.412059	-0.188954	0.761578	-0.409288	-0.119085	0.768071	-0.431984	-0.127309	0.827643	-0.432172	-0.254124	0.383698	-0.380506	-0.270275	0.343762	-0.383583	-0.212533	0.328890	-0.395445	-0.201613	0.367439	-0.396961	-0.348305	0.146149	-0.435334	-0.215192	0.055663	-0.381839	-0.186763	0.056824	-0.448987	-0.166296	0.045222	-0.441352	-0.219234	0.778642	-0.757148	-0.210405	0.719743	-0.758053	-0.139740	0.731731	-0.769325	-0.156441	0.790809	-0.768970	-0.252604	0.360411	-0.778100	-0.266896	0.322567	-0.773497	-0.206240	0.306153	-0.777195	-0.199555	0.349533	-0.781530	-0.324321	0.158848	-0.727902	-0.203128	0.049480	-0.777945	-0.168038	0.057717	-0.719168	-0.151283	0.044167	-0.727567	
130	0.6500	-0.276198	1.424703	-0.596876	-0.218474	1.398836	-0.767663	-0.211152	1.405606	-0.426782	-0.158509	1.384641	-0.600114	-0.119791	1.001007	-0.513501	-0.122914	1.001349	-0.686051	-0.180742	1.052166	-0.461246	-0.180808	1.053718	-0.720324	-0.261099	1.029002	-0.522552	-0.264661	1.032232	-0.638310	-0.269749	1.037802	-0.580890	-0.188904	0.821253	-0.412193	-0.188789	0.759276	-0.409442	-0.118949	0.766134	-0.432104	-0.127467	0.825647	-0.432291	-0.253843	0.382028	-0.380994	-0.270306	0.342250	-0.384019	-0.212678	0.326859	-0.395649	-0.201394	0.365326	-0.397137	-0.350105	0.144928	-0.435765	-0.217005	0.054871	-0.381622	-0.188534	0.055657	-0.448819	-0.168063	0.044224	-0.441100	-0.218311	0.776434	-0.757617	-0.209107	0.717576	-0.758119	-0.138408	0.729912	-0.768791	-0.155472	0.788935	-0.768817	-0.252395	0.359178	-0.777681	-0.267008	0.321484	-0.773067	-0.206476	0.304576	-0.776724	-0.199464	0.347897	-0.781127	-0.325792	0.158256	-0.727268	-0.205339	0.048177	-0.777458	-0.170171	0.056149	-0.718627	-0.153466	0.042508	-0.727015	
131	0.6550	-0.276126	1.422510	-0.596822	-0.218715	1.396407	-0.767680	-0.210969	1.403182	-0.426720	-0.158603	1.382134	-0.600175	-0.120566	0.998691	-0.513433	-0.123543	0.999131	-0.685998	-0.181488	1.049761	-0.461229	-0.181480	1.051428	-0.720246	-0.261819	1.026532	-0.522573	-0.265278	1.029817	-0.638311	-0.270413	1.035354	-0.580910	-0.189118	0.818686	-0.412355	-0.188672	0.756717	-0.409628	-0.118845	0.763956	-0.432221	-0.127684	0.823414	-0.432395	-0.253524	0.380148	-0.381535	-0.270312	0.340559	-0.384467	-0.212802	0.324587	-0.395854	-0.201146	0.362980	-0.397318	-0.351976	0.143594	-0.436248	-0.219004	0.053912	-0.381275	-0.190383	0.054313	-0.448476	-0.169930	0.043022	-0.440632	-0.217429	0.774004	-0.758001	-0.207884	0.715198	-0.758111	-0.137156	0.727848	-0.768233	-0.154545	0.786816	-0.768629	-0.252178	0.357715	-0.777229	-0.267117	0.320196	-0.772623	-0.206717	0.302784	-0.776247	-0.199366	0.346068	-0.780720	-0.327245	0.157593	-0.726604	-0.207841	0.046523	-0.776972	-0.172560	0.054130	-0.718113	-0.155984	0.040411	-0.726513	
132	0.6600	-0.276052	1.420065	-0.596767	-0.218942	1.393722	-0.767690	-0.210791	1.400514	-0.426668	-0.158703	1.379386	-0.600226	-0.121372	0.996127	-0.513338	-0.124163	0.996677	-0.685932	-0.182301	1.047087	-0.461201	-0.182156	1.048897	-0.720163	-0.262575	1.023789	-0.522601	-0.265902	1.027153	-0.638316	-0.271094	1.032641	-0.580931	-0.189400	0.815856	-0.412552	-0.188608	0.753895	-0.409850	-0.118776	0.761543	-0.432330	-0.127960	0.820948	-0.432498	-0.253151	0.378094	-0.382080	-0.270289	0.338702	-0.384922	-0.212922	0.322134	-0.396066	-0.200862	0.360424	-0.397499	-0.353910	0.142156	-0.436786	-0.221199	0.052772	-0.380803	-0.192293	0.052803	-0.447943	-0.171879	0.041629	-0.439934	-0.216618	0.771351	-0.758288	-0.206762	0.712603	-0.758035	-0.136013	0.725527	-0.767657	-0.153691	0.784436	-0.768400	-0.251941	0.356032	-0.776746	-0.267216	0.318700	-0.772168	-0.206959	0.300788	-0.775765	-0.199281	0.344044	-0.780298	-0.328679	0.156845	-0.725898	-0.210615	0.044566	-0.776486	-0.175201	0.051741	-0.717589	-0.158808	0.038059	-0.726010	
133	0.6650	-0.275979	1.417359	-0.596706	-0.219159	1.390783	-0.767691	-0.210619	1.397599	-0.426625	-0.158804	1.376376	-0.600265	-0.122197	0.993320	-0.513239	-0.124771	0.993987	-0.685854	-0.183180	1.044143	-0.461164	-0.182824	1.046122	-0.720072	-0.263359	1.020778	-0.522639	-0.266528	1.024234	-0.638331	-0.271792	1.029673	-0.580954	-0.189753	0.812761	-0.412786	-0.188594	0.750814	-0.410111	-0.118748	0.758894	-0.432429	-0.128295	0.818252	-0.432593	-0.252717	0.375880	-0.382622	-0.270235	0.336679	-0.385378	-0.213012	0.319488	-0.396287	-0.200537	0.357656	-0.397679	-0.355895	0.140618	-0.437372	-0.223592	0.051448	-0.380220	-0.194256	0.051119	-0.447224	-0.173901	0.040055	-0.439019	-0.215887	0.768478	-0.758470	-0.205760	0.709783	-0.757890	-0.134996	0.722949	-0.767071	-0.152926	0.781802	-0.768127	-0.251685	0.354130	-0.776236	-0.267301	0.316998	-0.771714	-0.207196	0.298580	-0.775276	-0.199176	0.341807	-0.779855	-0.330132	0.155947	-0.725126	-0.213623	0.042392	-0.776007	-0.178019	0.049169	-0.716963	-0.161796	0.035646	-0.725412	
134	0.6700	-0.275913	1.414392	-0.596639	-0.219366	1.387590	-0.767683	-0.210454	1.394441	-0.426596	-0.158924	1.373129	-0.600291	-0.123045	0.990261	-0.513122	-0.125358	0.991055	-0.685764	-0.184107	1.040927	-0.461119	-0.183467	1.043105	-0.719975	-0.264166	1.017507	-0.522694	-0.267151	1.021071	-0.638362	-0.272502	1.026445	-0.580978	-0.190174	0.809408	-0.413051	-0.188625	0.747470	-0.410411	-0.118758	0.756003	-0.432520	-0.128682	0.815316	-0.432676	-0.252220	0.373509	-0.383154	-0.270144	0.334499	-0.385832	-0.213073	0.316623	-0.396503	-0.200164	0.354676	-0.397851	-0.357919	0.138971	-0.438002	-0.226179	0.049937	-0.379546	-0.196266	0.049279	-0.446320	-0.175998	0.038293	-0.437862	-0.215247	0.765371	-0.758552	-0.204899	0.706740	-0.757727	-0.134123	0.720116	-0.766494	-0.152259	0.778903	-0.767819	-0.251404	0.352004	-0.775706	-0.267371	0.315094	-0.771267	-0.207424	0.296157	-0.774784	-0.199046	0.339346	-0.779392	-0.331678	0.154803	-0.724295	-0.216737	0.040147	-0.775618	-0.180855	0.046642	-0.716174	-0.164748	0.033414	-0.724647	
